<?xml version="1.0" encoding="UTF-8" standalone="no"?>
<!-- Created with Inkscape (http://www.inkscape.org/) -->

<svg
   xmlns:dc="http://purl.org/dc/elements/1.1/"
   xmlns:cc="http://creativecommons.org/ns#"
   xmlns:rdf="http://www.w3.org/1999/02/22-rdf-syntax-ns#"
   xmlns:svg="http://www.w3.org/2000/svg"
   xmlns="http://www.w3.org/2000/svg"
   xmlns:xlink="http://www.w3.org/1999/xlink"
   xmlns:sodipodi="http://sodipodi.sourceforge.net/DTD/sodipodi-0.dtd"
   xmlns:inkscape="http://www.inkscape.org/namespaces/inkscape"
   width="1920px"
   height="1570px"
   viewBox="0 0 1920 1570"
   version="1.1"
   id="SVGRoot"
   inkscape:version="0.92.3 (2405546, 2018-03-11)"
   sodipodi:docname="amazon.svg"
   inkscape:export-filename="D:\pictures\browser thumbnails\amazon.png"
   inkscape:export-xdpi="96"
   inkscape:export-ydpi="96">
  <sodipodi:namedview
     id="base"
     pagecolor="#ffffff"
     bordercolor="#666666"
     borderopacity="1.0"
     inkscape:pageopacity="0.0"
     inkscape:pageshadow="2"
     inkscape:zoom="0.32201915"
     inkscape:cx="505.60258"
     inkscape:cy="705.51383"
     inkscape:document-units="px"
     inkscape:current-layer="layer2"
     showgrid="false"
     inkscape:window-width="1920"
     inkscape:window-height="1145"
     inkscape:window-x="1920"
     inkscape:window-y="27"
     inkscape:window-maximized="1"
     showguides="true"
     inkscape:guide-bbox="true">
    <sodipodi:guide
       position="0,1569.9999"
       orientation="0.70710678,0.70710678"
       id="guide1452"
       inkscape:locked="false" />
    <sodipodi:guide
       position="1920,1569.9999"
       orientation="-0.70710678,0.70710678"
       id="guide1454"
       inkscape:locked="false" />
    <sodipodi:guide
       position="0,-0.00012207031"
       orientation="-0.70710678,0.70710678"
       id="guide1458"
       inkscape:locked="false" />
    <sodipodi:guide
       position="1920,-0.00012207031"
       orientation="0.70710678,0.70710678"
       id="guide1460"
       inkscape:locked="false" />
    <sodipodi:guide
       position="1135,784.99989"
       orientation="0,1"
       id="guide1462"
       inkscape:locked="false" />
  </sodipodi:namedview>
  <defs
     id="defs825" />
  <metadata
     id="metadata828">
    <rdf:RDF>
      <cc:Work
         rdf:about="">
        <dc:format>image/svg+xml</dc:format>
        <dc:type
           rdf:resource="http://purl.org/dc/dcmitype/StillImage" />
        <dc:title />
      </cc:Work>
    </rdf:RDF>
  </metadata>
  <g
     inkscape:groupmode="layer"
     id="layer2"
     inkscape:label="background"
     style="opacity:1">
    <rect
       style="opacity:1;fill:#c8c8c8;fill-opacity:1;fill-rule:evenodd;stroke:none;stroke-width:18;stroke-linecap:butt;stroke-linejoin:round;stroke-miterlimit:4;stroke-dasharray:none;stroke-opacity:1;paint-order:fill markers stroke"
       id="rect1428"
       width="1920"
       height="1570"
       x="0"
       y="0.00011999215" />
  </g>
  <g
     id="layer1"
     inkscape:groupmode="layer"
     inkscape:label="Layer 1">
    <path
       inkscape:connector-curvature="0"
       d="m 1105.006,961.6774 c -69.999,51.5949 -171.45841,79.1226 -258.81302,79.1226 -122.48535,0 -232.75348,-45.3028 -316.17568,-120.6501 -6.55421,-5.925 -0.6816,-13.9998 7.18351,-9.3857 90.02871,52.3814 201.34564,83.8941 316.33288,83.8941 77.54949,0 162.85931,-16.0448 241.30021,-49.3402 11.85,-5.0337 21.76,7.7602 10.1721,16.3593"
       id="path8"
       style="fill:#ff9900;fill-opacity:1;stroke-width:0.99999994" />
    <path
       inkscape:connector-curvature="0"
       d="m 1134.1068,928.382 c -8.9138,-11.4306 -59.1454,-5.4007 -81.6919,-2.7265 -6.8688,0.8389 -7.9174,-5.1386 -1.7303,-9.4382 40.007,-28.15689 105.6541,-20.0297 113.3094,-10.5916 7.6554,9.4906 -1.9924,75.295 -39.5875,106.7027 -5.7677,4.824 -11.2732,2.2547 -8.704,-4.1422 8.4418,-21.0784 27.3704,-68.3212 18.4043,-79.8042"
       id="path10"
       style="fill:#ff9900;fill-opacity:1;stroke-width:0.99999994" />
    <path
       inkscape:connector-curvature="0"
       style="fill:#221f1f;stroke-width:0.99999994"
       d="M 1053.988,717.44093 V 690.0705 c 0,-4.14226 3.146,-6.92125 6.9212,-6.92125 h 122.5376 c 3.9326,0 7.0786,2.83143 7.0786,6.92125 v 23.43789 c -0.052,3.93254 -3.3556,9.07104 -9.2282,17.19827 l -63.4973,90.65801 c 23.5952,-0.57674 48.5013,2.93628 69.8941,14.99606 4.824,2.72654 6.1348,6.71151 6.5018,10.64407 v 29.20561 c 0,3.98496 -4.4044,8.65154 -9.0186,6.23961 -37.6999,-19.76755 -87.774,-21.91733 -129.4589,0.20974 -4.2472,2.30709 -8.704,-2.30709 -8.704,-6.29205 v -27.73746 c 0,-4.45687 0.052,-12.0598 4.5092,-18.82375 l 73.5646,-105.49675 h -64.0216 c -3.9325,0 -7.0785,-2.77896 -7.0785,-6.86882"
       id="path12" />
    <path
       inkscape:connector-curvature="0"
       style="fill:#221f1f;stroke-width:0.99999994"
       d="m 606.99009,888.21771 h -37.28044 c -3.5654,-0.26214 -6.39691,-2.93626 -6.65901,-6.34449 V 690.54244 c 0,-3.82766 3.19841,-6.86884 7.18341,-6.86884 h 34.76354 c 3.61801,0.1572 6.50181,2.93628 6.76401,6.3969 v 25.01094 h 0.6816 c 9.07111,-24.172 26.11203,-35.44526 49.07806,-35.44526 23.33303,0 37.90955,11.27326 48.39636,35.44526 9.01861,-24.172 29.52013,-35.44526 51.48996,-35.44526 15.62522,0 32.71864,6.44936 43.15295,20.92108 11.79762,16.09717 9.38561,39.48261 9.38561,59.98425 l -0.052,120.75497 c 0,3.82767 -3.1984,6.92123 -7.18341,6.92123 h -37.22794 c -3.7228,-0.26214 -6.71151,-3.25086 -6.71151,-6.92123 V 779.88956 c 0,-8.07479 0.734,-28.20936 -1.0487,-35.86472 -2.779,-12.84624 -11.11591,-16.4642 -21.91733,-16.4642 -9.01861,0 -18.45672,6.02989 -22.28432,15.67772 -3.82771,9.64782 -3.46071,25.79739 -3.46071,36.6512 v 101.40692 c 0,3.82767 -3.1984,6.92123 -7.18341,6.92123 h -37.22794 c -3.7752,-0.26214 -6.71151,-3.25086 -6.71151,-6.92123 l -0.052,-101.40692 c 0,-21.34053 3.51301,-52.74838 -22.96603,-52.74838 -26.79363,0 -25.74493,30.6213 -25.74493,52.74838 v 101.40692 c 0,3.82767 -3.1985,6.92123 -7.18351,6.92123"
       id="path14" />
    <path
       inkscape:connector-curvature="0"
       style="fill:#221f1f;stroke-width:0.99999994"
       d="m 1296.0222,679.63618 c 55.3177,0 85.2573,47.505 85.2573,107.90872 0,58.35876 -33.0856,104.65778 -85.2573,104.65778 -54.3213,0 -83.8939,-47.505 -83.8939,-106.7027 0,-59.56478 29.9396,-105.8638 83.8939,-105.8638 m 0.3146,39.06319 c -27.4752,0 -29.2056,37.43767 -29.2056,60.77073 0,23.38546 -0.367,73.3024 28.891,73.3024 28.891,0 30.2542,-40.26911 30.2542,-64.80816 0,-16.14957 -0.6816,-35.4452 -5.558,-50.75589 -4.1946,-13.31814 -12.5316,-18.50908 -24.3816,-18.50908"
       id="path16" />
    <path
       inkscape:connector-curvature="0"
       style="fill:#221f1f;stroke-width:0.99999994"
       d="m 1453.009,888.21771 h -37.1232 c -3.7228,-0.26214 -6.7115,-3.25086 -6.7115,-6.92123 l -0.052,-191.38328 c 0.3146,-3.51306 3.4083,-6.2396 7.1835,-6.2396 h 34.5538 c 3.2508,0.1572 5.925,2.35952 6.659,5.34824 v 29.25803 h 0.6816 c 10.4344,-26.16444 25.0635,-38.64369 50.8084,-38.64369 16.7264,0 33.0334,6.0299 43.52,22.54652 9.7528,15.31067 9.7528,41.05566 9.7528,59.56475 v 120.44041 c -0.4196,3.35573 -3.5132,6.02985 -7.1834,6.02985 h -37.3852 c -3.4084,-0.26214 -6.2398,-2.77896 -6.6068,-6.02985 V 778.26412 c 0,-20.92108 2.412,-51.54242 -23.3331,-51.54242 -9.071,0 -17.4081,6.08234 -21.5503,15.31066 -5.2434,11.69276 -5.925,23.33305 -5.925,36.23176 v 103.03236 c -0.052,3.82767 -3.3032,6.92123 -7.2882,6.92123"
       id="path18" />
    <use
       height="100%"
       width="100%"
       y="0"
       x="0"
       style="fill:#221f1f;stroke-width:0.49999923"
       xlink:href="#path30"
       transform="translate(488.73516)"
       id="use28" />
    <path
       inkscape:connector-curvature="0"
       style="fill:#221f1f;stroke-width:0.99999994"
       d="m 467.56873,796.82567 v -8.07479 c -26.95093,0 -55.42247,5.76771 -55.42247,37.54256 0,16.09716 8.33691,27.00342 22.65133,27.00342 10.48681,0 19.87242,-6.44936 25.79743,-16.93613 7.34071,-12.89872 6.97371,-25.01092 6.97371,-39.53506 m 37.59504,90.8677 c -2.4644,2.20222 -6.0299,2.35952 -8.80891,0.8914 -12.37431,-10.27702 -14.57662,-15.04849 -21.39302,-24.8536 -20.44913,20.86864 -34.92085,27.10822 -61.45238,27.10822 -31.35533,0 -55.78946,-19.34805 -55.78946,-58.09657 0,-30.2543 16.41172,-50.86077 39.74474,-60.92805 20.23943,-8.91378 48.50126,-10.48676 70.10399,-12.95114 v -4.82391 c 0,-8.86134 0.6817,-19.34809 -4.50931,-27.00338 -4.5617,-6.86885 -13.26571,-9.70027 -20.92112,-9.70027 -14.20952,0 -26.89844,7.28828 -29.99204,22.3892 -0.6292,3.35579 -3.0936,6.65911 -6.44941,6.81641 l -36.17924,-3.88012 c -3.0412,-0.6816 -6.39691,-3.14603 -5.55801,-7.81259 8.33701,-43.83463 47.92446,-57.04797 83.3697,-57.04797 18.14203,0 41.84215,4.82391 56.15657,18.56155 18.14202,16.9361 16.41172,39.53506 16.41172,64.12652 v 58.09662 c 0,17.46046 7.23591,25.11575 14.05232,34.55387 2.4119,3.35572 2.9363,7.39313 -0.1048,9.90995 -7.60291,6.34451 -21.13083,18.14211 -28.57644,24.74876 l -0.1048,-0.105"
       id="path30" />
  </g>
</svg>
