<?xml version="1.0" encoding="UTF-8" standalone="no"?>
<!-- Created with Inkscape (http://www.inkscape.org/) -->

<svg
   xmlns:dc="http://purl.org/dc/elements/1.1/"
   xmlns:cc="http://creativecommons.org/ns#"
   xmlns:rdf="http://www.w3.org/1999/02/22-rdf-syntax-ns#"
   xmlns:svg="http://www.w3.org/2000/svg"
   xmlns="http://www.w3.org/2000/svg"
   xmlns:sodipodi="http://sodipodi.sourceforge.net/DTD/sodipodi-0.dtd"
   xmlns:inkscape="http://www.inkscape.org/namespaces/inkscape"
   width="1920px"
   height="1570px"
   viewBox="0 0 1920 1570"
   version="1.1"
   id="SVGRoot"
   inkscape:version="0.92.3 (2405546, 2018-03-11)"
   sodipodi:docname="reddit.svg"
   inkscape:export-filename="D:\pictures\browser thumbnails\reddit.png"
   inkscape:export-xdpi="96"
   inkscape:export-ydpi="96">
  <sodipodi:namedview
     id="base"
     pagecolor="#ffffff"
     bordercolor="#666666"
     borderopacity="1.0"
     inkscape:pageopacity="0.0"
     inkscape:pageshadow="2"
     inkscape:zoom="0.32200128"
     inkscape:cx="345.28708"
     inkscape:cy="492.59517"
     inkscape:document-units="px"
     inkscape:current-layer="layer2"
     showgrid="false"
     inkscape:window-width="1920"
     inkscape:window-height="1145"
     inkscape:window-x="1920"
     inkscape:window-y="27"
     inkscape:window-maximized="1"
     showguides="true"
     inkscape:guide-bbox="true">
    <sodipodi:guide
       position="0,1569.9999"
       orientation="0.70710678,0.70710678"
       id="guide1452"
       inkscape:locked="false" />
    <sodipodi:guide
       position="1920,1569.9999"
       orientation="-0.70710678,0.70710678"
       id="guide1454"
       inkscape:locked="false" />
    <sodipodi:guide
       position="0,-0.00012207031"
       orientation="-0.70710678,0.70710678"
       id="guide1458"
       inkscape:locked="false" />
    <sodipodi:guide
       position="1920,-0.00012207031"
       orientation="0.70710678,0.70710678"
       id="guide1460"
       inkscape:locked="false" />
    <sodipodi:guide
       position="1135,784.99989"
       orientation="0,1"
       id="guide1462"
       inkscape:locked="false" />
  </sodipodi:namedview>
  <defs
     id="defs825">
    <linearGradient
       gradientTransform="matrix(0,0.99999997,0.99999998,0,2183.8571,98.571407)"
       y2="199"
       x2="400"
       y1="199"
       x1="9.094947e-013"
       gradientUnits="userSpaceOnUse"
       id="SVGID_1_">
      <stop
         id="stop1505"
         style="stop-color:#E52D27"
         offset="0" />
      <stop
         id="stop1507"
         style="stop-color:#BF171D"
         offset="1" />
    </linearGradient>
    <clipPath
       id="clipPath20">
      <path
         inkscape:connector-curvature="0"
         d="M 0,792 H 612 V 0 H 0 Z"
         id="path22" />
    </clipPath>
    <clipPath
       id="clipPath20-5">
      <path
         inkscape:connector-curvature="0"
         d="M 0,792 H 612 V 0 H 0 Z"
         id="path22-4" />
    </clipPath>
  </defs>
  <metadata
     id="metadata828">
    <rdf:RDF>
      <cc:Work
         rdf:about="">
        <dc:format>image/svg+xml</dc:format>
        <dc:type
           rdf:resource="http://purl.org/dc/dcmitype/StillImage" />
        <dc:title />
      </cc:Work>
    </rdf:RDF>
  </metadata>
  <g
     inkscape:groupmode="layer"
     id="layer2"
     inkscape:label="background"
     style="opacity:1">
    <rect
       style="opacity:1;fill:#ffffff;fill-opacity:1;fill-rule:evenodd;stroke:none;stroke-width:18;stroke-linecap:butt;stroke-linejoin:round;stroke-miterlimit:4;stroke-dasharray:none;stroke-opacity:1;paint-order:fill markers stroke"
       id="rect1428"
       width="1920"
       height="1570"
       x="0"
       y="0.00011999215" />
    <rect
       id="rect1510"
       height="1570"
       width="1920"
       x="0"
       y="4.5000002e-006"
       style="fill:#ff662d;stroke-width:1;fill-opacity:1" />
  </g>
  <g
     inkscape:groupmode="layer"
     id="layer3"
     inkscape:label="logo">
    <g
       id="g991">
      <path
         inkscape:connector-curvature="0"
         d="m 699.8512,742.26179 c 0,-5.44154 1.62236,-9.76783 4.89148,-12.97883 3.2691,-3.17426 7.22131,-4.79198 11.88101,-4.79198 4.74509,0 8.79488,1.56872 12.11279,4.69392 3.3423,3.162 5.01344,7.50051 5.01344,13.07689 v 17.66052 h 0.7685 c 5.13542,-9.02022 11.86881,-17.17027 20.24896,-24.46248 8.38014,-7.26761 17.16283,-11.11592 26.33586,-11.49583 5.14762,0 9.68535,1.71578 13.66193,5.09834 3.96445,3.39484 5.97714,7.59857 5.97714,12.64796 0,5.90724 -2.03713,10.23352 -6.11129,13.01555 -4.0742,2.78207 -10.00251,5.17195 -17.77275,7.19414 -7.75804,2.03443 -12.79589,3.6522 -15.10134,4.93906 -18.6754,10.17224 -28.00701,27.58765 -28.00701,52.23397 v 101.42842 c 0,5.62551 -1.57356,9.98851 -4.72068,13.07692 -3.14714,3.1007 -7.03835,4.6449 -11.66146,4.6449 -4.89147,0 -9.03885,-1.6177 -12.42994,-4.8655 -3.40329,-3.27231 -5.08664,-7.84371 -5.08664,-13.66512 z"
         id="path106"
         style="fill:#000000;fill-opacity:1;fill-rule:nonzero;stroke:none;stroke-width:9.01751232" />
      <path
         inkscape:connector-curvature="0"
         d="m 699.8512,742.26179 c 0,-5.44154 1.62236,-9.76783 4.89148,-12.97883 3.2691,-3.17426 7.22131,-4.79198 11.88101,-4.79198 4.74509,0 8.79488,1.56872 12.11279,4.69392 3.3423,3.162 5.01344,7.50051 5.01344,13.07689 v 17.66052 h 0.7685 c 5.13542,-9.02022 11.86881,-17.17027 20.24896,-24.46248 8.38014,-7.26761 17.16283,-11.11592 26.33586,-11.49583 5.14762,0 9.68535,1.71578 13.66193,5.09834 3.96445,3.39484 5.97714,7.59857 5.97714,12.64796 0,5.90724 -2.03713,10.23352 -6.11129,13.01555 -4.0742,2.78207 -10.00251,5.17195 -17.77275,7.19414 -7.75804,2.03443 -12.79589,3.6522 -15.10134,4.93906 -18.6754,10.17224 -28.00701,27.58765 -28.00701,52.23397 v 101.42842 c 0,5.62551 -1.57356,9.98851 -4.72068,13.07692 -3.14714,3.1007 -7.03835,4.6449 -11.66146,4.6449 -4.89147,0 -9.03885,-1.6177 -12.42994,-4.8655 -3.40329,-3.27231 -5.08664,-7.84371 -5.08664,-13.66512 z"
         id="path110"
         style="fill:#ffffff;stroke:#ffffff;stroke-width:5.39247274;stroke-linecap:butt;stroke-linejoin:miter;stroke-miterlimit:4;stroke-dasharray:none;stroke-opacity:1;fill-opacity:1" />
      <path
         inkscape:connector-curvature="0"
         d="m 844.05556,818.27309 h 114.7116 c -0.36606,-19.22925 -5.46475,-34.63473 -15.2843,-46.33896 -9.81955,-11.67973 -23.26191,-17.73403 -40.35154,-18.11395 -17.39459,0 -31.3859,5.67439 -42.01053,16.94965 -10.61241,11.29982 -16.29675,27.14649 -17.06523,47.50326 m -34.70381,10.95662 c 0.76848,-17.89337 4.86708,-34.84306 12.25915,-50.92259 7.40428,-16.03047 17.9557,-29.02157 31.66648,-39.01002 13.69856,-9.97618 29.81234,-15.07452 48.32915,-15.33192 17.96793,0 33.93533,4.86554 47.90225,14.60886 13.94248,9.74328 24.71349,22.63631 32.30076,38.69133 7.59943,16.07954 11.39306,32.84539 11.39306,50.37112 0,11.22626 -6.37961,16.85164 -19.13892,16.85164 H 844.05556 c 0.25614,13.9225 3.20812,25.70029 8.89247,35.28427 5.67217,9.58398 13.25943,16.7413 22.7984,21.49656 9.52674,4.74293 20.07817,7.10832 31.69081,7.10832 20.33437,0 39.022,-7.21866 56.02624,-21.68041 5.8551,-4.25274 10.16107,-6.36071 12.90564,-6.36071 3.83024,0 6.7944,1.43393 8.94129,4.28951 2.13468,2.85558 3.19592,6.32393 3.19592,10.36832 0,4.37534 -1.68334,8.57902 -5.05006,12.61117 -7.67265,8.17457 -18.5412,15.31968 -32.60568,21.44759 -14.06452,6.12781 -29.20245,9.19171 -45.40165,9.19171 -16.97985,0 -31.73964,-3.1987 -44.26716,-9.64521 -12.53973,-6.40981 -22.62758,-14.97652 -30.28806,-25.59 -7.67265,-10.62573 -13.24722,-22.12161 -16.76027,-34.46311 -3.50088,-12.30477 -5.35503,-24.78111 -5.53801,-37.3923 0.32925,-0.63727 0.52455,-1.11524 0.62215,-1.38487 0.0854,-0.30615 0.13395,-0.4659 0.13395,-0.53926"
         id="path114"
         style="fill:#000000;fill-opacity:1;fill-rule:nonzero;stroke:none;stroke-width:9.01751232" />
      <path
         inkscape:connector-curvature="0"
         d="m 844.05556,818.27309 h 114.7116 c -0.36606,-19.22925 -5.46475,-34.63473 -15.2843,-46.33896 -9.81955,-11.67973 -23.26191,-17.73403 -40.35154,-18.11395 -17.39459,0 -31.3859,5.67439 -42.01053,16.94965 -10.61241,11.29982 -16.29675,27.14649 -17.06523,47.50326 z m -34.70381,10.95662 c 0.76848,-17.89337 4.86708,-34.84306 12.25915,-50.92259 7.40428,-16.03047 17.9557,-29.02157 31.66648,-39.01002 13.69856,-9.97618 29.81234,-15.07452 48.32915,-15.33192 17.96793,0 33.93533,4.86554 47.90225,14.60886 13.94248,9.74328 24.71349,22.63631 32.30076,38.69133 7.59943,16.07954 11.39306,32.84539 11.39306,50.37112 0,11.22626 -6.37961,16.85164 -19.13892,16.85164 H 844.05556 c 0.25614,13.9225 3.20812,25.70029 8.89247,35.28427 5.67217,9.58398 13.25943,16.7413 22.7984,21.49656 9.52674,4.74293 20.07817,7.10832 31.69081,7.10832 20.33437,0 39.022,-7.21866 56.02624,-21.68041 5.8551,-4.25274 10.16107,-6.36071 12.90564,-6.36071 3.83024,0 6.7944,1.43393 8.94129,4.28951 2.13468,2.85558 3.19592,6.32393 3.19592,10.36832 0,4.37534 -1.68334,8.57902 -5.05006,12.61117 -7.67265,8.17457 -18.5412,15.31968 -32.60568,21.44759 -14.06452,6.12781 -29.20245,9.19171 -45.40165,9.19171 -16.97985,0 -31.73964,-3.1987 -44.26716,-9.64521 -12.53973,-6.40981 -22.62758,-14.97652 -30.28806,-25.59 -7.67265,-10.62573 -13.24722,-22.12161 -16.76027,-34.46311 -3.50088,-12.30477 -5.35503,-24.78111 -5.53801,-37.3923 0.32925,-0.63727 0.52455,-1.11524 0.62215,-1.38487 0.0854,-0.30615 0.13395,-0.4659 0.13395,-0.53926 z"
         id="path118"
         style="fill:#ffffff;fill-opacity:1;stroke:#ffffff;stroke-width:5.39247274;stroke-linecap:butt;stroke-linejoin:miter;stroke-miterlimit:4;stroke-dasharray:none;stroke-opacity:1" />
      <path
         inkscape:connector-curvature="0"
         d="m 1051.1317,830.4933 c 0,21.25144 4.5622,39.37772 13.7108,54.36645 9.1121,14.97651 22.7496,22.83243 40.8395,23.50653 14.4182,0 26.0919,-3.73803 35.082,-11.27531 8.9046,-7.51274 15.3087,-17.07221 19.1145,-28.65389 3.8546,-11.59394 5.9039,-23.97222 6.2577,-37.17167 0,-15.18485 -2.4397,-28.67842 -7.3555,-40.49295 -4.8793,-11.80229 -11.6981,-20.93279 -20.3954,-27.34256 -8.7218,-6.39749 -18.5657,-9.60849 -29.5684,-9.60849 -12.9788,0 -23.7376,3.86055 -32.3373,11.47139 -8.5875,7.6598 -14.894,17.29283 -18.895,28.88678 -3.9766,11.58167 -6.1235,23.7026 -6.4529,36.31372 m 111.0889,-78.30188 V 649.05936 c 0,-5.39253 1.6711,-9.60848 5.0012,-12.68469 3.3423,-3.08843 7.2945,-4.62042 11.8078,-4.62042 5.0378,0 9.2096,1.53199 12.5763,4.60819 3.3423,3.07616 5.0257,7.54951 5.0257,13.43225 v 270.70475 c 0,5.57641 -1.7322,9.90261 -5.1721,13.05242 -3.4276,3.1374 -7.5872,4.6939 -12.4299,4.6939 -4.3059,0 -8.2094,-1.5565 -11.6614,-4.6817 -3.4277,-3.12521 -5.1476,-7.21861 -5.1476,-12.24342 v -11.29986 h -0.793 c -3.696,7.53726 -9.7341,13.99607 -18.1508,19.43757 -8.4046,5.42931 -19.7611,8.34621 -34.0696,8.78741 -18.3582,0 -34.4964,-4.4979 -48.3412,-13.53031 -13.8694,-9.00802 -24.6038,-21.57013 -32.2643,-37.71094 -7.6116,-16.10403 -11.5639,-34.3896 -11.881,-54.8812 0,-14.65782 2.1225,-28.59265 6.3918,-41.82882 4.2816,-13.26073 10.3197,-24.81789 18.1021,-34.72051 7.7824,-9.86589 17.1263,-17.61147 27.9949,-23.20011 10.8807,-5.60088 22.8105,-8.40741 35.7772,-8.40741 23.3839,0 42.2301,9.41236 56.4409,28.22496 z"
         id="path122"
         style="fill:#000000;fill-opacity:1;fill-rule:nonzero;stroke:none;stroke-width:9.01751232" />
      <path
         inkscape:connector-curvature="0"
         d="m 1051.1317,830.4933 c 0,21.25144 4.5622,39.37772 13.7108,54.36645 9.1121,14.97651 22.7496,22.83243 40.8395,23.50653 14.4182,0 26.0919,-3.73803 35.082,-11.27531 8.9046,-7.51274 15.3087,-17.07221 19.1145,-28.65389 3.8546,-11.59394 5.9039,-23.97222 6.2577,-37.17167 0,-15.18485 -2.4397,-28.67842 -7.3555,-40.49295 -4.8793,-11.80229 -11.6981,-20.93279 -20.3954,-27.34256 -8.7218,-6.39749 -18.5657,-9.60849 -29.5684,-9.60849 -12.9788,0 -23.7376,3.86055 -32.3373,11.47139 -8.5875,7.6598 -14.894,17.29283 -18.895,28.88678 -3.9766,11.58167 -6.1235,23.7026 -6.4529,36.31372 z m 111.0889,-78.30188 V 649.05936 c 0,-5.39253 1.6711,-9.60848 5.0012,-12.68469 3.3423,-3.08843 7.2945,-4.62042 11.8078,-4.62042 5.0378,0 9.2096,1.53199 12.5763,4.60819 3.3423,3.07616 5.0257,7.54951 5.0257,13.43225 v 270.70475 c 0,5.57641 -1.7322,9.90261 -5.1721,13.05242 -3.4276,3.1374 -7.5872,4.6939 -12.4299,4.6939 -4.3059,0 -8.2094,-1.5565 -11.6614,-4.6817 -3.4277,-3.12521 -5.1476,-7.21861 -5.1476,-12.24342 v -11.29986 h -0.793 c -3.696,7.53726 -9.7341,13.99607 -18.1508,19.43757 -8.4046,5.42931 -19.7611,8.34621 -34.0696,8.78741 -18.3582,0 -34.4964,-4.4979 -48.3412,-13.53031 -13.8694,-9.00802 -24.6038,-21.57013 -32.2643,-37.71094 -7.6116,-16.10403 -11.5639,-34.3896 -11.881,-54.8812 0,-14.65782 2.1225,-28.59265 6.3918,-41.82882 4.2816,-13.26073 10.3197,-24.81789 18.1021,-34.72051 7.7824,-9.86589 17.1263,-17.61147 27.9949,-23.20011 10.8807,-5.60088 22.8105,-8.40741 35.7772,-8.40741 23.3839,0 42.2301,9.41236 56.4409,28.22496 z"
         id="path126"
         style="fill:#ffffff;fill-opacity:1;stroke:#ffffff;stroke-width:5.3920002;stroke-linecap:butt;stroke-linejoin:miter;stroke-miterlimit:4;stroke-dasharray:none;stroke-opacity:1" />
      <path
         inkscape:connector-curvature="0"
         d="m 1268.996,830.4933 c 0,21.25144 4.5499,39.37772 13.6986,54.36645 9.1365,14.97651 22.7496,22.83243 40.8517,23.50653 14.4182,0 26.1162,-3.73803 35.0331,-11.27531 8.9657,-7.51274 15.3454,-17.07221 19.1634,-28.65389 3.8302,-11.59394 5.9161,-23.97222 6.2455,-37.17167 0,-15.18485 -2.4397,-28.67842 -7.3312,-40.49295 -4.8792,-11.80229 -11.698,-20.93279 -20.4076,-27.34256 -8.7216,-6.39749 -18.5777,-9.60849 -29.5683,-9.60849 -12.9788,0 -23.762,3.86055 -32.3495,11.47139 -8.5997,7.6598 -14.8697,17.29283 -18.8706,28.88678 -4.001,11.58167 -6.1479,23.7026 -6.4651,36.31372 m 111.0523,-78.30188 V 649.05936 c 0,-5.39253 1.6833,-9.60848 5.05,-12.68469 3.3423,-3.08843 7.2579,-4.62042 11.7834,-4.62042 5.0256,0 9.2462,1.53199 12.5763,4.60819 3.3545,3.07616 5.0134,7.54951 5.0134,13.43225 v 270.70475 c 0,5.57641 -1.7199,9.90261 -5.1476,13.05242 -3.4399,3.1374 -7.6116,4.6939 -12.4421,4.6939 -4.3181,0 -8.2093,-1.5565 -11.6492,-4.6817 -3.4399,-3.12521 -5.1842,-7.21861 -5.1842,-12.24342 v -11.29986 h -0.7564 c -3.7082,7.53726 -9.7463,13.99607 -18.1508,19.43757 -8.3924,5.42931 -19.7489,8.34621 -34.0696,8.78741 -18.3704,0 -34.4841,-4.4979 -48.3535,-13.53031 -13.8816,-9.00802 -24.6159,-21.57013 -32.2398,-37.71094 -7.6116,-16.10403 -11.5882,-34.3896 -11.8932,-54.8812 0,-14.65782 2.1347,-28.59265 6.404,-41.82882 4.2816,-13.26073 10.2953,-24.81789 18.0777,-34.72051 7.7946,-9.86589 17.1262,-17.61147 27.9949,-23.20011 10.8807,-5.60088 22.8106,-8.40741 35.765,-8.40741 23.396,0 42.2301,9.41236 56.4653,28.22496 z"
         id="path130"
         style="fill:#000000;fill-opacity:1;fill-rule:nonzero;stroke:none;stroke-width:9.01751232" />
      <path
         inkscape:connector-curvature="0"
         d="m 1268.996,830.4933 c 0,21.25144 4.5499,39.37772 13.6986,54.36645 9.1365,14.97651 22.7496,22.83243 40.8517,23.50653 14.4182,0 26.1162,-3.73803 35.0331,-11.27531 8.9657,-7.51274 15.3454,-17.07221 19.1634,-28.65389 3.8302,-11.59394 5.9161,-23.97222 6.2455,-37.17167 0,-15.18485 -2.4397,-28.67842 -7.3312,-40.49295 -4.8792,-11.80229 -11.698,-20.93279 -20.4076,-27.34256 -8.7216,-6.39749 -18.5777,-9.60849 -29.5683,-9.60849 -12.9788,0 -23.762,3.86055 -32.3495,11.47139 -8.5997,7.6598 -14.8697,17.29283 -18.8706,28.88678 -4.001,11.58167 -6.1479,23.7026 -6.4651,36.31372 z m 111.0523,-78.30188 V 649.05936 c 0,-5.39253 1.6833,-9.60848 5.05,-12.68469 3.3423,-3.08843 7.2579,-4.62042 11.7834,-4.62042 5.0256,0 9.2462,1.53199 12.5763,4.60819 3.3545,3.07616 5.0134,7.54951 5.0134,13.43225 v 270.70475 c 0,5.57641 -1.7199,9.90261 -5.1476,13.05242 -3.4399,3.1374 -7.6116,4.6939 -12.4421,4.6939 -4.3181,0 -8.2093,-1.5565 -11.6492,-4.6817 -3.4399,-3.12521 -5.1842,-7.21861 -5.1842,-12.24342 v -11.29986 h -0.7564 c -3.7082,7.53726 -9.7463,13.99607 -18.1508,19.43757 -8.3924,5.42931 -19.7489,8.34621 -34.0696,8.78741 -18.3704,0 -34.4841,-4.4979 -48.3535,-13.53031 -13.8816,-9.00802 -24.6159,-21.57013 -32.2398,-37.71094 -7.6116,-16.10403 -11.5882,-34.3896 -11.8932,-54.8812 0,-14.65782 2.1347,-28.59265 6.404,-41.82882 4.2816,-13.26073 10.2953,-24.81789 18.0777,-34.72051 7.7946,-9.86589 17.1262,-17.61147 27.9949,-23.20011 10.8807,-5.60088 22.8106,-8.40741 35.765,-8.40741 23.396,0 42.2301,9.41236 56.4653,28.22496 z"
         id="path134"
         style="fill:#ffffff;stroke:#ffffff;stroke-width:5.39247274;stroke-linecap:butt;stroke-linejoin:miter;stroke-miterlimit:4;stroke-dasharray:none;stroke-opacity:1;fill-opacity:1" />
      <path
         inkscape:connector-curvature="0"
         d="m 1566.6363,755.9294 h -15.1867 c -4.8793,0 -8.7949,-1.39715 -11.7468,-4.17923 -2.9275,-2.78202 -4.6231,-6.23815 -5.1354,-10.33158 1.0124,-10.24581 6.648,-15.36871 16.8822,-15.36871 h 15.1867 v -46.74337 c 0,-5.0984 1.6346,-9.06922 4.8793,-11.88803 3.2569,-2.79435 7.2091,-4.20372 11.9298,-4.20372 5.0012,0 9.2097,1.42165 12.5764,4.26495 3.3545,2.85564 5.0622,7.07159 5.0622,12.68469 v 45.88548 h 15.1623 c 5.233,0 9.2096,1.42171 11.942,4.22823 2.7446,2.81886 4.123,6.50782 4.123,11.14048 0,3.92186 -1.3784,7.30443 -4.0132,10.17229 -2.6958,2.88009 -6.1479,4.33852 -10.4172,4.33852 h -16.7969 v 165.30534 c 0,5.25781 -1.8175,9.41241 -5.4038,12.46412 -3.574,3.0394 -7.9411,4.5469 -12.9911,4.5469 -4.5133,0 -8.3558,-1.5075 -11.4053,-4.5469 -3.0739,-3.05171 -4.6475,-7.46371 -4.6475,-13.21162 z"
         id="path138"
         style="fill:#ffffff;fill-opacity:1;fill-rule:nonzero;stroke:none;stroke-width:9.01751232" />
      <path
         inkscape:connector-curvature="0"
         d="m 1566.6363,755.9294 h -15.1867 c -4.8793,0 -8.7949,-1.39715 -11.7468,-4.17923 -2.9275,-2.78202 -4.6231,-6.23815 -5.1354,-10.33158 1.0124,-10.24581 6.648,-15.36871 16.8822,-15.36871 h 15.1867 v -46.74337 c 0,-5.0984 1.6346,-9.06922 4.8793,-11.88803 3.2569,-2.79435 7.2091,-4.20372 11.9298,-4.20372 5.0012,0 9.2097,1.42165 12.5764,4.26495 3.3545,2.85564 5.0622,7.07159 5.0622,12.68469 v 45.88548 h 15.1623 c 5.233,0 9.2096,1.42171 11.942,4.22823 2.7446,2.81886 4.123,6.50782 4.123,11.14048 0,3.92186 -1.3784,7.30443 -4.0132,10.17229 -2.6958,2.88009 -6.1479,4.33852 -10.4172,4.33852 h -16.7969 v 165.30534 c 0,5.25781 -1.8175,9.41241 -5.4038,12.46412 -3.574,3.0394 -7.9411,4.5469 -12.9911,4.5469 -4.5133,0 -8.3558,-1.5075 -11.4053,-4.5469 -3.0739,-3.05171 -4.6475,-7.46371 -4.6475,-13.21162 z"
         id="path142"
         style="fill:none;stroke:#ffffff;stroke-width:5.39247274;stroke-linecap:butt;stroke-linejoin:miter;stroke-miterlimit:4;stroke-dasharray:none;stroke-opacity:1" />
      <path
         inkscape:connector-curvature="0"
         id="path150"
         d="m 1478.8669,705.68546 c -20.8287,0 -37.9287,-17.18588 -37.9287,-38.10769 0,-20.92181 17.1,-38.10769 37.9287,-38.10769 20.8286,0 37.9287,17.18074 37.9287,38.10769 0,20.92695 -17.1001,38.10769 -37.9287,38.10769 z m 0,-19.60437 c 10.2767,0 18.3925,-8.17815 18.3925,-18.50332 0,-10.32516 -8.1158,-18.50331 -18.3925,-18.50331 -10.2767,0 -18.3925,8.17301 -18.3925,18.50331 0,10.33031 8.1158,18.50332 18.3925,18.50332 z"
         style="color:#ffffff;font-style:normal;font-variant:normal;font-weight:normal;font-stretch:normal;font-size:medium;line-height:normal;font-family:sans-serif;font-variant-ligatures:normal;font-variant-position:normal;font-variant-caps:normal;font-variant-numeric:normal;font-variant-alternates:normal;font-feature-settings:normal;text-indent:0;text-align:start;text-decoration:none;text-decoration-line:none;text-decoration-style:solid;text-decoration-color:#ffffff;letter-spacing:normal;word-spacing:normal;text-transform:none;writing-mode:lr-tb;direction:ltr;text-orientation:mixed;dominant-baseline:auto;baseline-shift:baseline;text-anchor:start;white-space:normal;shape-padding:0;clip-rule:nonzero;display:inline;overflow:visible;visibility:visible;opacity:1;isolation:auto;mix-blend-mode:normal;color-interpolation:sRGB;color-interpolation-filters:linearRGB;solid-color:#ffffff;solid-opacity:1;vector-effect:none;fill:#ffffff;fill-opacity:1;fill-rule:nonzero;stroke:none;stroke-width:14.42802143;stroke-linecap:butt;stroke-linejoin:miter;stroke-miterlimit:4;stroke-dasharray:none;stroke-dashoffset:0;stroke-opacity:1;color-rendering:auto;image-rendering:auto;shape-rendering:auto;text-rendering:auto;enable-background:accumulate" />
      <path
         inkscape:connector-curvature="0"
         d="M 1478.9144,740.39401 V 921.68084"
         id="path154"
         style="fill:none;stroke:#ffffff;stroke-width:30.29884338;stroke-linecap:round;stroke-linejoin:miter;stroke-miterlimit:4;stroke-dasharray:none;stroke-opacity:1" />
    </g>
    <g
       id="g995"
       transform="rotate(-9.999991,270.3995,734.05939)">
      <path
         inkscape:connector-curvature="0"
         d="m 512.72659,823.24336 c 29.72692,0 53.81828,29.20537 53.81828,65.24948 0,36.05632 -24.09136,65.24942 -53.81828,65.24942 -29.72691,0 -53.79387,-29.1931 -53.79387,-65.24942 0,-36.04411 24.06696,-65.24948 53.79387,-65.24948"
         id="path26"
         style="fill:#ffffff;fill-opacity:1;fill-rule:nonzero;stroke:none;stroke-width:9.01751232" />
      <path
         inkscape:connector-curvature="0"
         d="m 512.72659,823.24336 c 29.72692,0 53.81828,29.20537 53.81828,65.24948 0,36.05632 -24.09136,65.24942 -53.81828,65.24942 -29.72691,0 -53.79387,-29.1931 -53.79387,-65.24942 0,-36.04411 24.06696,-65.24948 53.79387,-65.24948 z"
         id="path30"
         style="fill:none;stroke:#000000;stroke-width:9.91926479;stroke-linecap:butt;stroke-linejoin:miter;stroke-miterlimit:4;stroke-dasharray:none;stroke-opacity:1" />
      <path
         inkscape:connector-curvature="0"
         d="m 428.04942,1021.6807 c 0.76849,-2.4144 1.3174,-4.9146 1.3174,-7.5373 0,-16.68004 -16.60169,-30.1981 -37.0824,-30.1981 -20.48071,0 -37.0702,13.51806 -37.0702,30.1981 0,2.6227 0.53672,5.1229 1.3174,7.5373 z"
         id="path34"
         style="fill:#ffffff;fill-opacity:1;fill-rule:nonzero;stroke:none;stroke-width:9.01751232" />
      <path
         inkscape:connector-curvature="0"
         d="m 428.04942,1021.6807 c 0.76849,-2.4144 1.3174,-4.9146 1.3174,-7.5373 0,-16.68004 -16.60169,-30.1981 -37.0824,-30.1981 -20.48071,0 -37.0702,13.51806 -37.0702,30.1981 0,2.6227 0.53672,5.1229 1.3174,7.5373 z"
         id="path38"
         style="fill:none;stroke:#000000;stroke-width:9.91926479;stroke-linecap:round;stroke-linejoin:round;stroke-miterlimit:4;stroke-dasharray:none;stroke-opacity:1" />
      <path
         inkscape:connector-curvature="0"
         d="m 557.90491,1021.6807 c 0.76849,-2.4144 1.3052,-4.9146 1.3052,-7.5373 0,-16.68004 -16.60169,-30.1981 -37.0824,-30.1981 -20.4807,0 -37.0702,13.51806 -37.0702,30.1981 0,2.6227 0.53672,5.1229 1.30521,7.5373 z"
         id="path42"
         style="fill:#ffffff;fill-opacity:1;fill-rule:nonzero;stroke:none;stroke-width:9.01751232" />
      <path
         inkscape:connector-curvature="0"
         d="m 557.90491,1021.6807 c 0.76849,-2.4144 1.3052,-4.9146 1.3052,-7.5373 0,-16.68004 -16.60169,-30.1981 -37.0824,-30.1981 -20.4807,0 -37.0702,13.51806 -37.0702,30.1981 0,2.6227 0.53672,5.1229 1.30521,7.5373 z"
         id="path46"
         style="fill:none;stroke:#000000;stroke-width:9.91926479;stroke-linecap:round;stroke-linejoin:round;stroke-miterlimit:4;stroke-dasharray:none;stroke-opacity:1" />
      <path
         inkscape:connector-curvature="0"
         d="m 355.86682,685.26476 c 0,18.29776 -14.75977,33.11496 -32.97162,33.11496 -18.19966,0 -32.94723,-14.8172 -32.94723,-33.11496 0,-18.29777 14.74757,-33.12719 32.94723,-33.12719 18.21185,0 32.97162,14.82942 32.97162,33.12719"
         id="path50"
         style="fill:#ffffff;fill-opacity:1;fill-rule:nonzero;stroke:none;stroke-width:9.01751232" />
      <path
         inkscape:connector-curvature="0"
         d="m 355.86682,685.26476 c 0,18.29776 -14.75977,33.11496 -32.97162,33.11496 -18.19966,0 -32.94723,-14.8172 -32.94723,-33.11496 0,-18.29777 14.74757,-33.12719 32.94723,-33.12719 18.21185,0 32.97162,14.82942 32.97162,33.12719 z"
         id="path54"
         style="fill:none;stroke:#000000;stroke-width:9.91926479;stroke-linecap:butt;stroke-linejoin:miter;stroke-miterlimit:4;stroke-dasharray:none;stroke-opacity:1" />
      <path
         inkscape:connector-curvature="0"
         d="m 625.47661,685.26476 c 0,18.29776 -14.75978,33.11496 -32.97163,33.11496 -18.19965,0 -32.94722,-14.8172 -32.94722,-33.11496 0,-18.29777 14.74757,-33.12719 32.94722,-33.12719 18.21185,0 32.97163,14.82942 32.97163,33.12719"
         id="path58"
         style="fill:#ffffff;fill-opacity:1;fill-rule:nonzero;stroke:none;stroke-width:9.01751232" />
      <path
         inkscape:connector-curvature="0"
         d="m 625.47661,685.26476 c 0,18.29776 -14.75978,33.11496 -32.97163,33.11496 -18.19965,0 -32.94722,-14.8172 -32.94722,-33.11496 0,-18.29777 14.74757,-33.12719 32.94722,-33.12719 18.21185,0 32.97163,14.82942 32.97163,33.12719 z"
         id="path62"
         style="fill:none;stroke:#000000;stroke-width:9.91926479;stroke-linecap:butt;stroke-linejoin:miter;stroke-miterlimit:4;stroke-dasharray:none;stroke-opacity:1" />
      <path
         inkscape:connector-curvature="0"
         d="m 549.0832,569.03275 -65.91885,-15.58926 -24.22554,76.94142"
         id="path66"
         style="fill:none;stroke:#000000;stroke-width:9.91926479;stroke-linecap:round;stroke-linejoin:round;stroke-miterlimit:4;stroke-dasharray:none;stroke-opacity:1" />
      <path
         inkscape:connector-curvature="0"
         d="m 401.74043,823.24336 c 29.72692,0 53.80608,29.20537 53.80608,65.24948 0,36.05632 -24.07916,65.24942 -53.80608,65.24942 -29.71471,0 -53.79387,-29.1931 -53.79387,-65.24942 0,-36.04411 24.07916,-65.24948 53.79387,-65.24948"
         id="path70"
         style="fill:#ffffff;fill-opacity:1;fill-rule:nonzero;stroke:none;stroke-width:9.01751232" />
      <path
         inkscape:connector-curvature="0"
         d="m 401.74043,823.24336 c 29.72692,0 53.80608,29.20537 53.80608,65.24948 0,36.05632 -24.07916,65.24942 -53.80608,65.24942 -29.71471,0 -53.79387,-29.1931 -53.79387,-65.24942 0,-36.04411 24.07916,-65.24948 53.79387,-65.24948 z"
         id="path74"
         style="fill:none;stroke:#000000;stroke-width:9.91926479;stroke-linecap:butt;stroke-linejoin:miter;stroke-miterlimit:4;stroke-dasharray:none;stroke-opacity:1" />
      <path
         inkscape:connector-curvature="0"
         d="m 601.96831,574.38849 c 0,14.41273 -11.63704,26.10467 -25.96987,26.10467 -14.36943,0 -25.99428,-11.69194 -25.99428,-26.10467 0,-14.42501 11.62485,-26.10467 25.99428,-26.10467 14.33283,0 25.96987,11.67966 25.96987,26.10467"
         id="path78"
         style="fill:#ffffff;fill-opacity:1;fill-rule:nonzero;stroke:none;stroke-width:9.01751232" />
      <path
         inkscape:connector-curvature="0"
         d="m 601.96831,574.38849 c 0,14.41273 -11.63704,26.10467 -25.96987,26.10467 -14.36943,0 -25.99428,-11.69194 -25.99428,-26.10467 0,-14.42501 11.62485,-26.10467 25.99428,-26.10467 14.33283,0 25.96987,11.67966 25.96987,26.10467 z"
         id="path82"
         style="fill:none;stroke:#000000;stroke-width:9.91926479;stroke-linecap:butt;stroke-linejoin:miter;stroke-miterlimit:4;stroke-dasharray:none;stroke-opacity:1" />
      <path
         inkscape:connector-curvature="0"
         d="m 438.75818,1021.7162 h 36.47249 c 32.39831,-16.9374 56.40429,-77.70132 56.40429,-150.2674 0,-85.6675 -33.42296,-155.10842 -74.64053,-155.10842 -41.22978,0 -74.64053,69.44092 -74.64053,155.10842 0,72.56608 24.00597,133.33 56.40428,150.2674"
         id="path86"
         style="fill:#ffffff;fill-opacity:1;fill-rule:nonzero;stroke:none;stroke-width:9.01751232" />
      <path
         inkscape:connector-curvature="0"
         d="m 438.75818,1021.7162 h 36.47249 c 32.39831,-16.9374 56.40429,-77.70132 56.40429,-150.2674 0,-85.6675 -33.42296,-155.10842 -74.64053,-155.10842 -41.22978,0 -74.64053,69.44092 -74.64053,155.10842 0,72.56608 24.00597,133.33 56.40428,150.2674 z"
         id="path90"
         style="fill:none;stroke:#000000;stroke-width:9.91926479;stroke-linecap:butt;stroke-linejoin:miter;stroke-miterlimit:4;stroke-dasharray:none;stroke-opacity:1" />
      <path
         inkscape:connector-curvature="0"
         d="m 606.28036,730.81069 c 0,54.05997 -66.8337,97.87419 -149.29325,97.87419 -82.44735,0 -149.28106,-43.81422 -149.28106,-97.87419 0,-54.05996 66.83371,-97.88647 149.28106,-97.88647 82.45955,0 149.29325,43.82651 149.29325,97.88647"
         id="path94"
         style="fill:#ffffff;fill-opacity:1;fill-rule:nonzero;stroke:none;stroke-width:9.01751232" />
      <path
         inkscape:connector-curvature="0"
         d="m 606.28036,730.81069 c 0,54.05997 -66.8337,97.87419 -149.29325,97.87419 -82.44735,0 -149.28106,-43.81422 -149.28106,-97.87419 0,-54.05996 66.83371,-97.88647 149.28106,-97.88647 82.45955,0 149.29325,43.82651 149.29325,97.88647 z"
         id="path98"
         style="fill:none;stroke:#000000;stroke-width:9.91926479;stroke-linecap:butt;stroke-linejoin:miter;stroke-miterlimit:4;stroke-dasharray:none;stroke-opacity:1" />
      <path
         inkscape:connector-curvature="0"
         d="m 417.72734,1021.6807 h 80.45905"
         id="path102"
         style="fill:none;stroke:#000000;stroke-width:9.91926479;stroke-linecap:round;stroke-linejoin:round;stroke-miterlimit:4;stroke-dasharray:none;stroke-opacity:1" />
      <path
         inkscape:connector-curvature="0"
         d="m 422.61026,711.7028 c 0,9.68203 -7.81902,17.52567 -17.44336,17.52567 -9.64875,0 -17.45557,-7.84364 -17.45557,-17.52567 0,-9.69425 7.80682,-17.53793 17.45557,-17.53793 9.62434,0 17.44336,7.84368 17.44336,17.53793"
         id="path158"
         style="fill:#ff4500;fill-opacity:1;fill-rule:nonzero;stroke:none;stroke-width:9.01751232" />
      <path
         inkscape:connector-curvature="0"
         d="m 422.61026,711.7028 c 0,9.68203 -7.81902,17.52567 -17.44336,17.52567 -9.64875,0 -17.45557,-7.84364 -17.45557,-17.52567 0,-9.69425 7.80682,-17.53793 17.45557,-17.53793 9.62434,0 17.44336,7.84368 17.44336,17.53793 z"
         id="path162"
         style="fill:none;stroke:#ff4500;stroke-width:9.91926479;stroke-linecap:butt;stroke-linejoin:miter;stroke-miterlimit:4;stroke-dasharray:none;stroke-opacity:1" />
      <path
         inkscape:connector-curvature="0"
         d="m 527.7901,711.7028 c 0,9.68203 -7.80683,17.52567 -17.44337,17.52567 -9.62435,0 -17.44337,-7.84364 -17.44337,-17.52567 0,-9.69425 7.81902,-17.53793 17.44337,-17.53793 9.63654,0 17.44337,7.84368 17.44337,17.53793"
         id="path166"
         style="fill:#ff4500;fill-opacity:1;fill-rule:nonzero;stroke:none;stroke-width:9.01751232" />
      <path
         inkscape:connector-curvature="0"
         d="m 527.7901,711.7028 c 0,9.68203 -7.80683,17.52567 -17.44337,17.52567 -9.62435,0 -17.44337,-7.84364 -17.44337,-17.52567 0,-9.69425 7.81902,-17.53793 17.44337,-17.53793 9.63654,0 17.44337,7.84368 17.44337,17.53793 z"
         id="path170"
         style="fill:none;stroke:#ff4500;stroke-width:9.91926479;stroke-linecap:butt;stroke-linejoin:miter;stroke-miterlimit:4;stroke-dasharray:none;stroke-opacity:1" />
      <path
         inkscape:connector-curvature="0"
         d="m 406.14275,775.86519 c 13.00323,13.06459 33.98406,15.57703 51.37864,15.57703"
         id="path174"
         style="fill:none;stroke:#000000;stroke-width:9.91926479;stroke-linecap:round;stroke-linejoin:miter;stroke-miterlimit:4;stroke-dasharray:none;stroke-opacity:1" />
      <path
         inkscape:connector-curvature="0"
         d="m 509.27817,775.86519 c -13.01543,13.06459 -33.97187,15.57703 -51.37864,15.57703"
         id="path178"
         style="fill:none;stroke:#000000;stroke-width:9.91926479;stroke-linecap:round;stroke-linejoin:miter;stroke-miterlimit:4;stroke-dasharray:none;stroke-opacity:1" />
    </g>
  </g>
</svg>
