<?xml version="1.0" encoding="UTF-8" standalone="no"?>
<!-- Created with Inkscape (http://www.inkscape.org/) -->

<svg
   xmlns:dc="http://purl.org/dc/elements/1.1/"
   xmlns:cc="http://creativecommons.org/ns#"
   xmlns:rdf="http://www.w3.org/1999/02/22-rdf-syntax-ns#"
   xmlns:svg="http://www.w3.org/2000/svg"
   xmlns="http://www.w3.org/2000/svg"
   xmlns:sodipodi="http://sodipodi.sourceforge.net/DTD/sodipodi-0.dtd"
   xmlns:inkscape="http://www.inkscape.org/namespaces/inkscape"
   width="1920px"
   height="1570px"
   viewBox="0 0 1920 1570"
   version="1.1"
   id="SVGRoot"
   inkscape:version="0.92.3 (2405546, 2018-03-11)"
   sodipodi:docname="youtube.svg"
   inkscape:export-filename="D:\pictures\browser thumbnails\youtube.png"
   inkscape:export-xdpi="96"
   inkscape:export-ydpi="96">
  <sodipodi:namedview
     id="base"
     pagecolor="#ffffff"
     bordercolor="#666666"
     borderopacity="1.0"
     inkscape:pageopacity="0.0"
     inkscape:pageshadow="2"
     inkscape:zoom="0.32201915"
     inkscape:cx="451.77123"
     inkscape:cy="892.34055"
     inkscape:document-units="px"
     inkscape:current-layer="layer2"
     showgrid="false"
     inkscape:window-width="1920"
     inkscape:window-height="1145"
     inkscape:window-x="1920"
     inkscape:window-y="27"
     inkscape:window-maximized="1"
     showguides="true"
     inkscape:guide-bbox="true">
    <sodipodi:guide
       position="0,1569.9999"
       orientation="0.70710678,0.70710678"
       id="guide1452"
       inkscape:locked="false" />
    <sodipodi:guide
       position="1920,1569.9999"
       orientation="-0.70710678,0.70710678"
       id="guide1454"
       inkscape:locked="false" />
    <sodipodi:guide
       position="0,-0.00012207031"
       orientation="-0.70710678,0.70710678"
       id="guide1458"
       inkscape:locked="false" />
    <sodipodi:guide
       position="1920,-0.00012207031"
       orientation="0.70710678,0.70710678"
       id="guide1460"
       inkscape:locked="false" />
    <sodipodi:guide
       position="1135,784.99989"
       orientation="0,1"
       id="guide1462"
       inkscape:locked="false" />
    <sodipodi:guide
       position="513.015,842.33"
       orientation="0.5,0.8660254"
       id="guide975"
       inkscape:locked="false"
       inkscape:label=""
       inkscape:color="rgb(0,0,255)" />
    <sodipodi:guide
       position="513.015,842.33"
       orientation="0.59130965,0.8064446"
       id="guide977"
       inkscape:locked="false"
       inkscape:label=""
       inkscape:color="rgb(0,0,255)" />
    <sodipodi:guide
       position="612.31366,784.99989"
       orientation="-0.5,0.8660254"
       id="guide979"
       inkscape:locked="false"
       inkscape:label=""
       inkscape:color="rgb(0,0,255)" />
  </sodipodi:namedview>
  <defs
     id="defs825">
    <linearGradient
       gradientTransform="matrix(0,0.99999997,0.99999998,0,2183.8571,98.5714)"
       y2="199"
       x2="400"
       y1="199"
       x1="9.094947e-013"
       gradientUnits="userSpaceOnUse"
       id="SVGID_1_">
      <stop
         id="stop1505"
         style="stop-color:#E52D27"
         offset="0" />
      <stop
         id="stop1507"
         style="stop-color:#BF171D"
         offset="1" />
    </linearGradient>
  </defs>
  <metadata
     id="metadata828">
    <rdf:RDF>
      <cc:Work
         rdf:about="">
        <dc:format>image/svg+xml</dc:format>
        <dc:type
           rdf:resource="http://purl.org/dc/dcmitype/StillImage" />
        <dc:title />
      </cc:Work>
    </rdf:RDF>
  </metadata>
  <g
     inkscape:groupmode="layer"
     id="layer5"
     inkscape:label="testbackground" />
  <g
     inkscape:groupmode="layer"
     id="layer2"
     inkscape:label="background"
     style="opacity:1">
    <rect
       style="opacity:1;fill:#ffffff;fill-opacity:1;fill-rule:evenodd;stroke:none;stroke-width:18;stroke-linecap:butt;stroke-linejoin:round;stroke-miterlimit:4;stroke-dasharray:none;stroke-opacity:1;paint-order:fill markers stroke"
       id="rect1428"
       width="1920"
       height="1570"
       x="0"
       y="0.00011999215" />
    <rect
       id="rect1510"
       height="1570"
       width="1920"
       x="0"
       y="9.9999997e-005"
       style="fill:#fe0000;fill-opacity:1;stroke-width:1" />
  </g>
  <g
     inkscape:groupmode="layer"
     id="layer3"
     inkscape:label="logo">
    <g
       id="g877"
       transform="matrix(3.15,0,0,3.15,359.925,651.125)"
       style="stroke-width:0.31746033">
      <g
         id="g837"
         style="stroke-width:0.31746033">
        <path
           style="fill:#ffffff;fill-opacity:1;stroke-width:1"
           d="M 551.13086 651.125 C 551.13086 651.125 431.43086 651.125 401.50586 659 C 385.44086 663.41 372.21078 676.63953 367.80078 693.01953 C 359.92578 722.94453 359.92578 785 359.92578 785 C 359.92578 785 359.92578 847.37047 367.80078 876.98047 C 372.21078 893.36047 385.12586 906.27555 401.50586 910.68555 C 431.74586 918.87555 551.13086 918.875 551.13086 918.875 C 551.13086 918.875 670.83086 918.875 700.75586 911 C 717.13586 906.59 730.05094 893.67492 734.46094 877.29492 C 742.33594 847.36992 742.33594 785.31445 742.33594 785.31445 C 742.33594 785.31445 742.65094 722.94453 734.46094 693.01953 C 730.05094 676.63953 717.13586 663.72445 700.75586 659.31445 C 670.83086 651.12445 551.13086 651.125 551.13086 651.125 z M 513.01562 727.66992 L 612.55469 785 L 513.01562 842.33008 L 513.01562 727.66992 z "
           id="path833"
           transform="matrix(0.31746032,0,0,0.31746032,-114.2619,-206.70635)" />
      </g>
      <g
         id="g855"
         style="stroke-width:0.31746033">
        <g
           id="g853"
           style="stroke-width:0.31746033">
          <path
             id="path839"
             d="m 176.3,77.4 c -2.4,-1.6 -4.1,-4.1 -5.1,-7.6 -1,-3.4 -1.5,-8 -1.5,-13.6 v -7.7 c 0,-5.7 0.6,-10.3 1.7,-13.8 1.2,-3.5 3,-6 5.4,-7.6 2.5,-1.6 5.7,-2.4 9.7,-2.4 3.9,0 7.1,0.8 9.5,2.4 2.4,1.6 4.1,4.2 5.2,7.6 1.1,3.4 1.7,8 1.7,13.8 v 7.7 c 0,5.7 -0.5,10.2 -1.6,13.7 -1.1,3.4 -2.8,6 -5.2,7.6 -2.4,1.6 -5.7,2.4 -9.8,2.4 -4.2,-0.1 -7.6,-0.9 -10,-2.5 z M 189.8,69 c 0.7,-1.7 1,-4.6 1,-8.5 V 43.9 c 0,-3.8 -0.3,-6.6 -1,-8.4 -0.7,-1.8 -1.8,-2.6 -3.5,-2.6 -1.6,0 -2.8,0.9 -3.4,2.6 -0.7,1.8 -1,4.6 -1,8.4 v 16.6 c 0,3.9 0.3,6.8 1,8.5 0.6,1.7 1.8,2.6 3.5,2.6 1.6,0 2.7,-0.8 3.4,-2.6 z"
             class="st2"
             inkscape:connector-curvature="0"
             style="fill:#282828;stroke-width:0.31746033" />
          <path
             id="path841"
             d="M 360.9,56.3 V 59 c 0,3.4 0.1,6 0.3,7.7 0.2,1.7 0.6,3 1.3,3.7 0.6,0.8 1.6,1.2 3,1.2 1.8,0 3,-0.7 3.7,-2.1 0.7,-1.4 1,-3.7 1.1,-7 l 10.3,0.6 c 0.1,0.5 0.1,1.1 0.1,1.9 0,4.9 -1.3,8.6 -4,11 -2.7,2.4 -6.5,3.6 -11.4,3.6 -5.9,0 -10,-1.9 -12.4,-5.6 -2.4,-3.7 -3.6,-9.4 -3.6,-17.2 v -9.3 c 0,-8 1.2,-13.8 3.7,-17.5 2.5,-3.7 6.7,-5.5 12.6,-5.5 4.1,0 7.3,0.8 9.5,2.3 2.2,1.5 3.7,3.9 4.6,7 0.9,3.2 1.3,7.6 1.3,13.2 v 9.1 h -20.1 z m 1.5,-22.4 c -0.6,0.8 -1,2 -1.2,3.7 -0.2,1.7 -0.3,4.3 -0.3,7.8 v 3.8 h 8.8 v -3.8 c 0,-3.4 -0.1,-6 -0.3,-7.8 -0.2,-1.8 -0.7,-3 -1.3,-3.7 -0.6,-0.7 -1.6,-1.1 -2.8,-1.1 -1.4,-0.1 -2.3,0.3 -2.9,1.1 z"
             class="st2"
             inkscape:connector-curvature="0"
             style="fill:#282828;stroke-width:0.31746033" />
          <path
             id="path843"
             d="M 147.1,55.3 133.5,6 h 11.9 l 4.8,22.3 c 1.2,5.5 2.1,10.2 2.7,14.1 h 0.3 c 0.4,-2.8 1.3,-7.4 2.7,-14 l 5,-22.4 h 11.9 L 159,55.3 V 78.9 H 147.2 V 55.3 Z"
             class="st2"
             inkscape:connector-curvature="0"
             style="fill:#282828;stroke-width:0.31746033" />
          <path
             id="path845"
             d="M 241.6,25.7 V 79 h -9.4 l -1,-6.5 h -0.3 c -2.5,4.9 -6.4,7.4 -11.5,7.4 -3.5,0 -6.1,-1.2 -7.8,-3.5 -1.7,-2.3 -2.5,-5.9 -2.5,-10.9 V 25.7 h 12 v 39.1 c 0,2.4 0.3,4.1 0.8,5.1 0.5,1 1.4,1.5 2.6,1.5 1,0 2,-0.3 3,-1 1,-0.6 1.7,-1.4 2.1,-2.4 V 25.7 Z"
             class="st2"
             inkscape:connector-curvature="0"
             style="fill:#282828;stroke-width:0.31746033" />
          <path
             id="path847"
             d="M 303.1,25.7 V 79 h -9.4 l -1,-6.5 h -0.3 c -2.5,4.9 -6.4,7.4 -11.5,7.4 -3.5,0 -6.1,-1.2 -7.8,-3.5 -1.7,-2.3 -2.5,-5.9 -2.5,-10.9 V 25.7 h 12 v 39.1 c 0,2.4 0.3,4.1 0.8,5.1 0.5,1 1.4,1.5 2.6,1.5 1,0 2,-0.3 3,-1 1,-0.6 1.7,-1.4 2.1,-2.4 V 25.7 Z"
             class="st2"
             inkscape:connector-curvature="0"
             style="fill:#282828;stroke-width:0.31746033" />
          <path
             id="path849"
             d="M 274.2,15.7 H 262.3 V 78.9 H 250.6 V 15.7 H 238.7 V 6 h 35.5 z"
             class="st2"
             inkscape:connector-curvature="0"
             style="fill:#282828;stroke-width:0.31746033" />
          <path
             id="path851"
             d="m 342.8,34.2 c -0.7,-3.4 -1.9,-5.8 -3.5,-7.3 -1.6,-1.5 -3.9,-2.3 -6.7,-2.3 -2.2,0 -4.3,0.6 -6.2,1.9 -1.9,1.2 -3.4,2.9 -4.4,4.9 h -0.1 V 3.3 h -11.6 v 75.6 h 9.9 l 1.2,-5 h 0.3 c 0.9,1.8 2.3,3.2 4.2,4.3 1.9,1 3.9,1.6 6.2,1.6 4.1,0 7,-1.9 8.9,-5.6 1.9,-3.7 2.9,-9.6 2.9,-17.5 v -8.4 c -0.1,-6.1 -0.4,-10.8 -1.1,-14.1 z m -11,21.7 c 0,3.9 -0.2,6.9 -0.5,9.1 -0.3,2.2 -0.9,3.8 -1.6,4.7 -0.8,0.9 -1.8,1.4 -3,1.4 -1,0 -1.9,-0.2 -2.7,-0.7 -0.8,-0.5 -1.5,-1.2 -2,-2.1 V 38.1 c 0.4,-1.4 1.1,-2.6 2.1,-3.6 1,-0.9 2.1,-1.4 3.2,-1.4 1.2,0 2.2,0.5 2.8,1.4 0.7,1 1.1,2.6 1.4,4.8 0.3,2.3 0.4,5.5 0.4,9.6 v 7 z"
             class="st2"
             inkscape:connector-curvature="0"
             style="fill:#282828;stroke-width:0.31746033" />
        </g>
      </g>
    </g>
  </g>
  <g
     inkscape:groupmode="layer"
     id="layer4"
     inkscape:label="schatten"
     style="display:inline">
    <path
       style="display:inline;opacity:0.12;fill:#420000"
       inkscape:connector-curvature="0"
       id="The_Sharpness-5"
       enable-background="new    "
       d="M 513.015,727.67 600.50311,791.81894 612.555,785 Z"
       sodipodi:nodetypes="cccc" />
  </g>
  <style
     id="style831"
     type="text/css">
	.st0{fill:#FF0000;}
	.st1{fill:#FFFFFF;}
	.st2{fill:#282828;}
</style>
</svg>
